<svg xmlns="http://www.w3.org/2000/svg" xmlns:xlink="http://www.w3.org/1999/xlink" width="816" height="815.436" viewBox="0 0 816 815.436">
  <defs>
    <linearGradient id="linear-gradient" x1="0.5" x2="0.5" y2="1" gradientUnits="objectBoundingBox">
      <stop offset="0" stop-color="#e334ac"/>
      <stop offset="0.97" stop-color="#8521d2"/>
      <stop offset="1" stop-color="#6f2b36"/>
    </linearGradient>
    <linearGradient id="linear-gradient-2" x1="0.5" x2="0.5" y2="1" gradientUnits="objectBoundingBox">
      <stop offset="0" stop-color="#6d1cdd"/>
      <stop offset="1" stop-color="#fc3aa2"/>
    </linearGradient>
  </defs>
  <g id="Group_1" data-name="Group 1" transform="translate(-145 -104)">
    <path id="_h1_free_favorite_package_icon__h1_" d="M108.768,5,5,143.338V657.254H442.77v-2.722l155.073,150.9,175.977-171.17.463-.463c40.493-43.1,41.418-110.969,0-152.467a107.385,107.385,0,0,0-117.028-23.51V143.338L553.487,5Zm29.648,59.3H301.479v59.3H93.944Zm222.359,0H523.839l44.472,59.3H360.775ZM64.3,182.888H597.958V503.861L573.87,481.393a107.714,107.714,0,0,0-152.409-.174v.058c-31.18,31.211-38.359,77.365-22.757,116.681H64.3Zm177.888,59.3a29.649,29.649,0,1,0,0,59.3l177.888,0a29.649,29.649,0,1,0,0-59.3ZM497.607,509.015a47.366,47.366,0,0,1,34.338,14.3l.347.347,66.013,61.67,58.543-55.416h.405v-.405l6.37-6.022.289-.289a48.3,48.3,0,0,1,68.387,0h.058c18.582,18.6,18.9,48.383-1.216,69.893l-133.3,129.594L464.659,593.152v-.058c-20.191-21.51-19.881-51.267-1.274-69.893A47.346,47.346,0,0,1,497.607,509.015Z" transform="translate(156 114)" fill="url(#linear-gradient)"/>
    <path id="_h1_free_favorite_package_icon__h1_2" data-name="_h1_free_favorite_package_icon__h1_" d="M108.768,5,5,143.338V657.254H442.77v-2.722l155.073,150.9,175.977-171.17.463-.463c40.493-43.1,41.418-110.969,0-152.467a107.385,107.385,0,0,0-117.028-23.51V143.338L553.487,5Zm29.648,59.3H301.479v59.3H93.944Zm222.359,0H523.839l44.472,59.3H360.775ZM64.3,182.888H597.958V503.861L573.87,481.393a107.714,107.714,0,0,0-152.409-.174v.058c-31.18,31.211-38.359,77.365-22.757,116.681H64.3Zm177.888,59.3a29.649,29.649,0,1,0,0,59.3l177.888,0a29.649,29.649,0,1,0,0-59.3ZM497.607,509.015a47.366,47.366,0,0,1,34.338,14.3l.347.347,66.013,61.67,58.543-55.416h.405v-.405l6.37-6.022.289-.289a48.3,48.3,0,0,1,68.387,0h.058c18.582,18.6,18.9,48.383-1.216,69.893l-133.3,129.594L464.659,593.152v-.058c-20.191-21.51-19.881-51.267-1.274-69.893A47.346,47.346,0,0,1,497.607,509.015Z" transform="translate(140 99)" fill="url(#linear-gradient-2)"/>
  </g>
</svg>
