<svg xmlns="http://www.w3.org/2000/svg" xmlns:xlink="http://www.w3.org/1999/xlink" width="634" height="353" viewBox="0 0 634 353">
  <defs>
    <clipPath id="clip-packsPromo">
      <rect width="634" height="353"/>
    </clipPath>
  </defs>
  <g id="packsPromo" clip-path="url(#clip-packsPromo)">
    <g id="home" transform="translate(147.821 72.648) rotate(-11)">
      <path id="Path_1" data-name="Path 1" d="M0,8.55,10.993,0,21.986,8.55V21.986a2.443,2.443,0,0,1-2.443,2.443H2.443A2.443,2.443,0,0,1,0,21.986Z" transform="translate(0 0)" fill="none" stroke="#fff" stroke-linecap="round" stroke-linejoin="round" stroke-width="2"/>
      <path id="Path_2" data-name="Path 2" d="M0,12.214V0H7.329V12.214" transform="translate(7.329 12.214)" fill="none" stroke="#fff" stroke-linecap="round" stroke-linejoin="round" stroke-width="2"/>
    </g>
    <g id="music" transform="matrix(0.951, 0.309, -0.309, 0.951, 46.176, 109.728)">
      <path id="Path_3" data-name="Path 3" d="M0,18.322V2.443L14.657,0V15.879" transform="translate(7.329 0)" fill="none" stroke="#fff" stroke-linecap="round" stroke-linejoin="round" stroke-width="2"/>
      <ellipse id="Ellipse_2" data-name="Ellipse 2" cx="3.664" cy="3.664" rx="3.664" ry="3.664" transform="translate(0 14.657)" fill="none" stroke="#fff" stroke-linecap="round" stroke-linejoin="round" stroke-width="2"/>
      <ellipse id="Ellipse_3" data-name="Ellipse 3" cx="3.664" cy="3.664" rx="3.664" ry="3.664" transform="translate(14.657 12.214)" fill="none" stroke="#fff" stroke-linecap="round" stroke-linejoin="round" stroke-width="2"/>
    </g>
    <g id="code" transform="translate(389.325 -3.828) rotate(-8)">
      <path id="Path_4" data-name="Path 4" d="M0,14.657,7.329,7.329,0,0" transform="translate(17.1 0)" fill="none" stroke="#fff" stroke-linecap="round" stroke-linejoin="round" stroke-width="2"/>
      <path id="Path_5" data-name="Path 5" d="M7.329,0,0,7.329l7.329,7.329" fill="none" stroke="#fff" stroke-linecap="round" stroke-linejoin="round" stroke-width="2"/>
    </g>
    <g id="user-plus" transform="translate(337.539 272.878) rotate(-5)">
      <path id="Path_6" data-name="Path 6" d="M18.322,7.329V4.886A4.886,4.886,0,0,0,13.436,0H4.886A4.886,4.886,0,0,0,0,4.886V7.329" transform="translate(0 14.657)" fill="none" stroke="#fff" stroke-linecap="round" stroke-linejoin="round" stroke-width="2"/>
      <circle id="Ellipse_4" data-name="Ellipse 4" cx="4.886" cy="4.886" r="4.886" transform="translate(4.275 0)" stroke-width="2" stroke="#fff" stroke-linecap="round" stroke-linejoin="round" fill="none"/>
      <line id="Line_1" data-name="Line 1" y2="7.329" transform="translate(23.207 6.107)" fill="none" stroke="#fff" stroke-linecap="round" stroke-linejoin="round" stroke-width="2"/>
      <line id="Line_2" data-name="Line 2" x1="7.329" transform="translate(19.543 9.771)" fill="none" stroke="#fff" stroke-linecap="round" stroke-linejoin="round" stroke-width="2"/>
    </g>
    <g id="book" transform="translate(211.031 8.895) rotate(-8)">
      <path id="Path_7" data-name="Path 7" d="M0,3.054A3.054,3.054,0,0,1,3.054,0H19.543" transform="translate(0 18.322)" fill="none" stroke="#fff" stroke-linecap="round" stroke-linejoin="round" stroke-width="2"/>
      <path id="Path_8" data-name="Path 8" d="M3.054,0H19.543V24.429H3.054A3.054,3.054,0,0,1,0,21.375V3.054A3.054,3.054,0,0,1,3.054,0Z" fill="none" stroke="#fff" stroke-linecap="round" stroke-linejoin="round" stroke-width="2"/>
    </g>
    <g id="at-sign" transform="matrix(0.695, -0.719, 0.719, 0.695, 346.039, 118.54)">
      <circle id="Ellipse_5" data-name="Ellipse 5" cx="4.886" cy="4.886" r="4.886" transform="translate(7.329 7.329)" stroke-width="2" stroke="#fff" stroke-linecap="round" stroke-linejoin="round" fill="none"/>
      <path id="Path_9" data-name="Path 9" d="M17.1,7.329v6.107a3.664,3.664,0,0,0,7.329,0V12.215a12.214,12.214,0,1,0-4.788,9.7" transform="translate(0 0)" fill="none" stroke="#fff" stroke-linecap="round" stroke-linejoin="round" stroke-width="2"/>
    </g>
    <g id="calendar" transform="translate(202.1 260.436) rotate(-8)">
      <rect id="Rectangle_1" data-name="Rectangle 1" width="21.837" height="21.837" rx="2" transform="translate(0 2.184)" stroke-width="2" stroke="#fff" stroke-linecap="round" stroke-linejoin="round" fill="none"/>
      <line id="Line_3" data-name="Line 3" y2="5.459" transform="translate(15.286 0)" fill="none" stroke="#fff" stroke-linecap="round" stroke-linejoin="round" stroke-width="2"/>
      <line id="Line_4" data-name="Line 4" y2="5.459" transform="translate(5.459 0)" fill="none" stroke="#fff" stroke-linecap="round" stroke-linejoin="round" stroke-width="2"/>
      <line id="Line_5" data-name="Line 5" x2="21.837" transform="translate(0 9.827)" fill="none" stroke="#fff" stroke-linecap="round" stroke-linejoin="round" stroke-width="2"/>
    </g>
    <path id="github" d="M8.55,22.019C2.443,23.851,2.443,18.965,0,18.354m17.1,7.329V20.956a4.116,4.116,0,0,0-1.148-3.188c3.835-.428,7.866-1.881,7.866-8.55a6.644,6.644,0,0,0-1.831-4.579A6.193,6.193,0,0,0,21.876.033S20.435-.395,17.1,1.84a16.343,16.343,0,0,0-8.55,0C5.216-.395,3.774.033,3.774.033a6.193,6.193,0,0,0-.11,4.6A6.645,6.645,0,0,0,1.832,9.255c0,6.62,4.031,8.074,7.866,8.55A4.116,4.116,0,0,0,8.55,20.956v4.727" transform="translate(464.82 95.787) rotate(17)" fill="none" stroke="#fff" stroke-linecap="round" stroke-linejoin="round" stroke-width="2"/>
    <g id="monitor" transform="translate(380.213 197.589) rotate(-31)">
      <rect id="Rectangle_2" data-name="Rectangle 2" width="24.429" height="17.1" rx="2" transform="translate(0 0)" stroke-width="2" stroke="#fff" stroke-linecap="round" stroke-linejoin="round" fill="none"/>
      <line id="Line_6" data-name="Line 6" x2="9.771" transform="translate(7.329 21.986)" fill="none" stroke="#fff" stroke-linecap="round" stroke-linejoin="round" stroke-width="2"/>
      <line id="Line_7" data-name="Line 7" y2="4.886" transform="translate(12.214 17.1)" fill="none" stroke="#fff" stroke-linecap="round" stroke-linejoin="round" stroke-width="2"/>
    </g>
    <path id="twitter" d="M26.872.013a13.314,13.314,0,0,1-3.835,1.869,5.472,5.472,0,0,0-9.6,3.664V6.767A13.02,13.02,0,0,1,2.443,1.234S-2.443,12.227,8.55,17.113A14.217,14.217,0,0,1,0,19.555c10.993,6.107,24.429,0,24.429-14.046a5.5,5.5,0,0,0-.1-1.014A9.429,9.429,0,0,0,26.872.013Z" transform="translate(475.625 254.783) rotate(-8)" fill="none" stroke="#fff" stroke-linecap="round" stroke-linejoin="round" stroke-width="2"/>
    <g id="tv" transform="translate(124.26 185.137) rotate(-8)">
      <rect id="Rectangle_3" data-name="Rectangle 3" width="25.113" height="18.561" rx="2" transform="translate(0 5.694)" stroke-width="2" stroke="#fff" stroke-linecap="round" stroke-linejoin="round" fill="none"/>
      <path id="Path_10" data-name="Path 10" d="M12.214,0,6.107,6.107,0,0" transform="translate(6.633 0)" fill="none" stroke="#fff" stroke-linecap="round" stroke-linejoin="round" stroke-width="2"/>
    </g>
    <g id="radio" transform="translate(486.507 178.63) rotate(-8)">
      <ellipse id="Ellipse_6" data-name="Ellipse 6" cx="2.443" cy="2.443" rx="2.443" ry="2.443" transform="translate(9.769 6.193)" fill="none" stroke="#fff" stroke-linecap="round" stroke-linejoin="round" stroke-width="2"/>
      <path id="Path_11" data-name="Path 11" d="M17.391,3.457a7.329,7.329,0,0,1,0,10.37M7.033,13.814a7.329,7.329,0,0,1,0-10.37M20.847,0a12.214,12.214,0,0,1,0,17.271m-17.271,0A12.214,12.214,0,0,1,3.576,0" fill="none" stroke="#fff" stroke-linecap="round" stroke-linejoin="round" stroke-width="2"/>
    </g>
    <g id="send" transform="translate(612.16 203.308) rotate(-8)">
      <line id="Line_8" data-name="Line 8" x1="13.102" y2="14.194" transform="translate(11.357 0)" fill="none" stroke="#fff" stroke-linecap="round" stroke-linejoin="round" stroke-width="2"/>
      <path id="Path_12" data-name="Path 12" d="M24.429,0l-8.55,24.429L10.993,13.436,0,8.55Z" transform="translate(0 0.361)" fill="none" stroke="#fff" stroke-linecap="round" stroke-linejoin="round" stroke-width="2"/>
    </g>
    <g id="server" transform="translate(240.492 149.192) rotate(-8)">
      <rect id="Rectangle_4" data-name="Rectangle 4" width="24.021" height="9.827" rx="2" transform="translate(0 0)" stroke-width="2" stroke="#fff" stroke-linecap="round" stroke-linejoin="round" fill="none"/>
      <rect id="Rectangle_5" data-name="Rectangle 5" width="24.021" height="9.827" rx="2" transform="translate(0 14.194)" stroke-width="2" stroke="#fff" stroke-linecap="round" stroke-linejoin="round" fill="none"/>
      <line id="Line_9" data-name="Line 9" transform="translate(5.459 4.367)" fill="none" stroke="#fff" stroke-linecap="round" stroke-linejoin="round" stroke-width="2"/>
      <line id="Line_10" data-name="Line 10" transform="translate(5.459 19.653)" fill="none" stroke="#fff" stroke-linecap="round" stroke-linejoin="round" stroke-width="2"/>
    </g>
    <g id="git-merge" transform="translate(613.228 86.884) rotate(-8)">
      <circle id="Ellipse_7" data-name="Ellipse 7" cx="3.821" cy="3.821" r="3.821" transform="translate(14.194 14.194)" stroke-width="2" stroke="#fff" stroke-linecap="round" stroke-linejoin="round" fill="none"/>
      <ellipse id="Ellipse_8" data-name="Ellipse 8" cx="3.276" cy="3.821" rx="3.276" ry="3.821" transform="translate(0 0)" fill="none" stroke="#fff" stroke-linecap="round" stroke-linejoin="round" stroke-width="2"/>
      <path id="Path_13" data-name="Path 13" d="M0,14.657V0A10.993,10.993,0,0,0,10.993,10.993" transform="translate(3.43 7.259)" fill="none" stroke="#fff" stroke-linecap="round" stroke-linejoin="round" stroke-width="2"/>
    </g>
    <g id="award" transform="translate(532.043 3.472) rotate(-8)">
      <ellipse id="Ellipse_9" data-name="Ellipse 9" cx="8.735" cy="8.189" rx="8.735" ry="8.189" transform="translate(0 0)" fill="none" stroke="#fff" stroke-linecap="round" stroke-linejoin="round" stroke-width="2"/>
      <path id="Path_14" data-name="Path 14" d="M1.478.012,0,11.139,6.107,7.475l6.107,3.664L10.736,0" transform="translate(2.595 15.511)" fill="none" stroke="#fff" stroke-linecap="round" stroke-linejoin="round" stroke-width="2"/>
    </g>
    <g id="copy" transform="translate(65 274)">
      <rect id="Rectangle_6" data-name="Rectangle 6" width="16.796" height="16.796" rx="2" transform="translate(11.044 11.044)" stroke-width="2" stroke="#fff" stroke-linecap="round" stroke-linejoin="round" fill="none"/>
      <path id="Path_15" data-name="Path 15" d="M5.876,18.8H4.584A2.584,2.584,0,0,1,2,16.212V4.584A2.584,2.584,0,0,1,4.584,2H16.212A2.584,2.584,0,0,1,18.8,4.584V5.876" transform="translate(0 0)" fill="none" stroke="#fff" stroke-linecap="round" stroke-linejoin="round" stroke-width="2"/>
    </g>
    <g id="gift" transform="translate(288.983 61.861) rotate(-14)">
      <path id="Path_16" data-name="Path 16" d="M24.43,12V22H4V12" transform="translate(0 4.43)" fill="none" stroke="#fff" stroke-linecap="round" stroke-linejoin="round" stroke-width="2"/>
      <rect id="Rectangle_7" data-name="Rectangle 7" width="24.43" height="5" transform="translate(2 8.477)" stroke-width="2" stroke="#fff" stroke-linecap="round" stroke-linejoin="round" fill="none"/>
      <line id="Line_11" data-name="Line 11" y1="15" transform="translate(14.215 11.43)" fill="none" stroke="#fff" stroke-linecap="round" stroke-linejoin="round" stroke-width="2"/>
      <path id="Path_17" data-name="Path 17" d="M12,7H7.5a2.5,2.5,0,0,1,0-5C11,2,12,7,12,7Z" transform="translate(1.022)" fill="none" stroke="#fff" stroke-linecap="round" stroke-linejoin="round" stroke-width="2"/>
      <path id="Path_18" data-name="Path 18" d="M12,7h4.5a2.5,2.5,0,0,0,0-5C13,2,12,7,12,7Z" transform="translate(3.408)" fill="none" stroke="#fff" stroke-linecap="round" stroke-linejoin="round" stroke-width="2"/>
    </g>
  </g>
</svg>
